# xmcd
#
# Track frame offsets:
#	150
#	16358
#	35553
#	49729
#	63432
#	78477
#	95447
#	111351
#	128010
#	142362
#	160584
#	178490
#	190296
#
# Disc length: 2769 seconds
#
# Revision: 1
# Processed by: cddbd v1.5.2PL0 Copyright (c) Steve Scherf et al.
# Submitted via: audiograbber 1.83.01
#
DISCID=ba0acf0d
DTITLE=Various Artist - KX 96 FM - Cradle to Rave 2003 Talent Contest
DYEAR=2003
DGENRE=Country
TTITLE0=Michelle Boudrias - Make Me Believe in Love
TTITLE1=Tracey Fraser - What A Year Has Done
TTITLE2=Jaimie Thome - Falling in Love on the Interstate
TTITLE3=Steve Holliday - For the Very Last Time
TTITLE4=Amy Baron - Written All Over My Heart
TTITLE5=Enka Bendoraitis - Lay Me Down
TTITLE6=Rob Middleton - The Player
TTITLE7=Donna Kehoe - Shine
TTITLE8=Tracey Fraser - I Still Believe In Love
TTITLE9=Tracey Fraser - That's What I'll Be
TTITLE10=Lisa Swain - It's Just the Way You Make Me Feel
TTITLE11=Rob Middleton - Hillbilly Cadillac
TTITLE12=Kim Bergeron - Consider This
EXTD=
EXTT0=
EXTT1=
EXTT2=
EXTT3=
EXTT4=
EXTT5=
EXTT6=
EXTT7=
EXTT8=
EXTT9=
EXTT10=
EXTT11=
EXTT12=
PLAYORDER=
